<svg id="Capa_1" data-name="Capa 1" xmlns="http://www.w3.org/2000/svg" viewBox="0 0 100 100"><defs><style>.cls-1{fill:#fff;}</style></defs><title>iconos</title><circle class="cls-1" cx="68.38" cy="32.78" r="3.87"/><path class="cls-1" d="M83.2,36.69a23.87,23.87,0,0,0-1.5-7.82,16.49,16.49,0,0,0-9.43-9.43,23.73,23.73,0,0,0-7.83-1.5c-3.44-.16-4.53-0.19-13.28-0.19s-9.85,0-13.28.19a23.66,23.66,0,0,0-7.82,1.5,16.49,16.49,0,0,0-9.43,9.42,23.54,23.54,0,0,0-1.5,7.82C19,40.13,18.94,41.23,18.94,50s0,9.85.19,13.29a23.69,23.69,0,0,0,1.5,7.82,16.49,16.49,0,0,0,9.42,9.43A23.67,23.67,0,0,0,37.88,82c3.44,0.16,4.54.19,13.29,0.19s9.85,0,13.29-.19a23.69,23.69,0,0,0,7.83-1.5,16.51,16.51,0,0,0,9.42-9.43,23.89,23.89,0,0,0,1.5-7.82c0.15-3.44.19-4.53,0.19-13.29S83.36,40.13,83.2,36.69ZM77.4,63a17.83,17.83,0,0,1-1.11,6,10.69,10.69,0,0,1-6.12,6.11,17.78,17.78,0,0,1-6,1.11c-3.4.15-4.42,0.19-13,.19s-9.63,0-13-.19a17.88,17.88,0,0,1-6-1.11A10.67,10.67,0,0,1,26,69a17.8,17.8,0,0,1-1.11-6c-0.15-3.4-.19-4.42-0.19-13s0-9.62.19-13A17.84,17.84,0,0,1,26,31a10.68,10.68,0,0,1,6.12-6.12,17.8,17.8,0,0,1,6-1.11c3-.13,4.13-0.17,10.13-0.18h2.89c8.6,0,9.62,0,13,.19a17.85,17.85,0,0,1,6,1.11A10.68,10.68,0,0,1,76.29,31a17.81,17.81,0,0,1,1.11,6c0.15,3.4.19,4.42,0.19,13S77.56,59.59,77.4,63Z"/><path class="cls-1" d="M51.17,33.43A16.55,16.55,0,1,0,67.72,50,16.55,16.55,0,0,0,51.17,33.43Zm0,27.29A10.74,10.74,0,1,1,61.92,50,10.74,10.74,0,0,1,51.17,60.72Z"/></svg>