<svg id="Capa_1" data-name="Capa 1" xmlns="http://www.w3.org/2000/svg" viewBox="0 0 100 100"><defs><style>.cls-1{fill:#fff;}</style></defs><title>iconos</title><g id="Page-1"><g id="Dribbble-Light-Preview"><g id="icons"><path id="youtube-_168_" data-name="youtube-[#168]" class="cls-1" d="M42.47,59.69v-21c7.46,3.51,13.24,6.9,20.08,10.56-5.64,3.13-12.61,6.63-20.08,10.46M84.05,28.21a9.72,9.72,0,0,0-5.82-3.45c-6.87-1.3-49.69-1.31-56.55,0a10,10,0,0,0-5,2.52c-6,5.6-4.15,35.65-2.69,40.52a10.63,10.63,0,0,0,2.4,4.62,9.65,9.65,0,0,0,5.06,2.63c5.65,1.17,34.77,1.82,56.64.18a9.81,9.81,0,0,0,5.2-2.66c5.58-5.58,5.2-37.32.73-44.35"/></g></g></g></svg>