<svg id="Capa_1" data-name="Capa 1" xmlns="http://www.w3.org/2000/svg" viewBox="0 0 46.67 44.31"><defs><style>.cls-1{fill:#222220;stroke:#3e589f;stroke-miterlimit:10;stroke-width:2.07px;}.cls-2{fill:#3e589f;}</style></defs><title>opciones</title><rect class="cls-1" x="7.2" y="6.83" width="32.28" height="30.64"/><path class="cls-2" d="M25.26,28l0.5-2.34s3.64,1.6,4,.2-2-1.17-3.54-2.64-0.72-4.07,1.39-4.87a7.34,7.34,0,0,1,4.72.3L31.83,20.8s-2.77-1.33-3.34,0,3.87,1.3,4.3,3.8S30.93,29.64,25.26,28Z"/><path class="cls-2" d="M24.66,16.84c-1.17-3.82-9.54-2.34-9.54-2.34V28.44h3V23.37C23.56,23.87,25.83,20.66,24.66,16.84ZM18.22,21V16.84S21.93,16,22,18.63,19.56,21.17,18.22,21Z"/></svg>