<svg id="Capa_1" data-name="Capa 1" xmlns="http://www.w3.org/2000/svg" viewBox="0 0 46.67 44.31"><defs><style>.cls-1{fill:#0075ab;}</style></defs><title>opciones</title><path class="cls-1" d="M10.27,22.15a13.07,13.07,0,0,0,7.37,11.76L11.4,16.84A13,13,0,0,0,10.27,22.15Zm21.89-.66a6.88,6.88,0,0,0-1.08-3.6,6.12,6.12,0,0,1-1.28-3.07A2.26,2.26,0,0,1,32,12.51h0.17A13.07,13.07,0,0,0,12.42,15l0.84,0c1.37,0,3.48-.17,3.48-0.17a0.54,0.54,0,0,1,.08,1.08S16.12,16,15.33,16l4.76,14.16,2.86-8.58-2-5.58c-0.7,0-1.37-.12-1.37-0.12a0.54,0.54,0,0,1,.08-1.08S21.78,15,23.07,15s3.48-.17,3.48-0.17a0.54,0.54,0,0,1,.08,1.08S25.92,16,25.14,16l4.72,14.05,1.3-4.36a15.79,15.79,0,0,0,1-4.23h0Zm-8.59,1.8-3.92,11.4a13.08,13.08,0,0,0,8-.21,1.15,1.15,0,0,1-.09-0.18l-4-11h0ZM34.8,15.88a10,10,0,0,1,.09,1.34,12.33,12.33,0,0,1-1,4.68l-4,11.54a13.07,13.07,0,0,0,4.9-17.57h0Zm-11.47-9A15.24,15.24,0,1,0,38.57,22.15,15.25,15.25,0,0,0,23.34,6.92h0Zm0,29.77A14.54,14.54,0,1,1,37.87,22.15,14.55,14.55,0,0,1,23.34,36.69Z"/></svg>