<svg id="Capa_1" data-name="Capa 1" xmlns="http://www.w3.org/2000/svg" viewBox="0 0 46.67 44.31"><defs><style>.cls-1{fill:#fff;}.cls-2{fill:#7cb03f;}</style></defs><title>opciones</title><polygon class="cls-1" points="6.47 27.86 6.47 22.59 10.05 20.36 13.58 22.5 13.58 27.86 11.22 26.61 11.25 23.83 10.03 23.06 8.8 23.81 8.8 26.55 6.47 27.86"/><polygon class="cls-2" points="15.21 26.61 15.21 22.47 18.85 20.36 22.43 22.56 22.43 26.47 18.82 28.66 15.21 26.61"/><polygon class="cls-1" points="35.92 24.93 35.92 24.22 36.54 23.86 37.16 24.23 37.16 24.91 36.54 25.28 35.92 24.93"/><path class="cls-1" d="M28.95,15.65V21.2l-1.22-.67-3.61,2v4.13l3.61,2,3.55-2.11V17Zm-0.11,9.63-1.14.67-1.25-.69V23.83l1.25-.72,1.14,0.69v1.47Z"/><polygon class="cls-2" points="32.97 26.58 32.97 22.5 36.52 20.36 40.2 22.45 40.2 23.81 37.8 25.14 37.8 23.89 36.47 23.11 35.33 23.83 35.33 25.19 38.8 27.27 36.59 28.66 32.97 26.58"/></svg>