<svg id="Capa_1" data-name="Capa 1" xmlns="http://www.w3.org/2000/svg" viewBox="0 0 46.67 44.31"><defs><style>.cls-1{fill:#5d68a5;stroke:#000;stroke-width:0.92px;}.cls-1,.cls-2{stroke-miterlimit:10;}.cls-2{fill:#030103;stroke:#fff;stroke-width:0.48px;}</style></defs><title>opciones</title><ellipse class="cls-1" cx="23.34" cy="22.16" rx="18.02" ry="8.82"/><path class="cls-2" d="M19.75,25.47l1.77-9h2l-0.35,2.48h2s2.84-.36,2.28,2.48-0.76,4.08-.76,4.08h-2l0.8-4.12s0.4-1.08-1-1.08H22.8l-1,5.2H19.75Z"/><path class="cls-2" d="M17,18.92H13.2l-1.8,9h2l0.4-2.28c3.2,0,5.48-.32,6.12-3.56S17,18.92,17,18.92ZM15.78,24c-1.34,0-1.7,0-1.7,0l0.76-3.76h1.22s1.67-.24,1.93.92A2.52,2.52,0,0,1,15.78,24Z"/><path class="cls-2" d="M32.32,18.92H28.48l-1.8,9h2l0.4-2.28c3.2,0,5.48-.32,6.12-3.56S32.32,18.92,32.32,18.92ZM31.05,24c-1.34,0-1.7,0-1.7,0l0.76-3.76h1.22s1.67-.24,1.93.92A2.52,2.52,0,0,1,31.05,24Z"/></svg>