<svg id="Capa_1" data-name="Capa 1" xmlns="http://www.w3.org/2000/svg" viewBox="0 0 46.67 44.31"><defs><style>.cls-1{fill:#f7e068;}.cls-2{fill:#5073a1;}</style></defs><title>opciones</title><path class="cls-1" d="M40.25,19.45c-0.6-3.38-2.82-4-3.89-4H33.44v3.75c0,3-3.1,4.63-5.46,4.63H20.24c-2.08,0-3.57,2.69-3.57,4.58V35.1c0,2.22,1.57,5,8.15,5s7.59-3.2,7.59-5.14V32.37H24.69V31.49H35.57c1.85,0,2.82-.28,4.21-2.82S40.85,22.83,40.25,19.45ZM29,34.4a1.48,1.48,0,1,1-1.48,1.48A1.48,1.48,0,0,1,29,34.4Z"/><path class="cls-2" d="M8.81,27.17c0.6,3.38,2.82,4,3.89,4h2.92V27.4c0-3,3.1-4.63,5.46-4.63h7.73c2.08,0,3.57-2.69,3.57-4.58V11.52c0-2.22-1.57-5-8.15-5s-7.59,3.2-7.59,5.14v2.59h7.73v0.88H13.48c-1.85,0-2.82.28-4.21,2.82S8.21,23.79,8.81,27.17ZM20,12.21a1.48,1.48,0,1,1,1.48-1.48A1.48,1.48,0,0,1,20,12.21Z"/></svg>