<svg id="Capa_1" data-name="Capa 1" xmlns="http://www.w3.org/2000/svg" viewBox="0 0 46.67 44.31"><defs><style>.cls-1{fill:#dfca2f;}.cls-2{fill:#fff;}.cls-3{fill:#ead754;}</style></defs><title>opciones</title><path class="cls-1" d="M11.56,12L13.7,35.85l9.63,2.89L33,35.95l2.15-24H11.56Z"/><polygon class="cls-2" points="23.43 9.72 23.43 8.67 25.19 8.67 23.43 6.76 23.43 5.57 27.1 5.57 27.1 6.52 25.26 6.52 27.29 8.62 27.29 9.72 23.43 9.72"/><polygon class="cls-2" points="22.86 9.72 22.86 5.57 21.42 5.57 21.42 8.48 20.8 8.48 20.8 8.15 19.56 8.15 19.56 9.72 22.86 9.72"/><polygon class="cls-3" points="23.25 15.02 23.31 35.8 31.22 33.53 32.51 14.95 23.25 15.02"/><path class="cls-2" d="M22.52,33.48l-5.39-1.43-0.52-4.77,2.48,0,0.24,2.29,0.86,0.29L19.85,16.93h2.67V33.48ZM30.39,20l-3.67,0V22.8l3.34,0L29.34,32,23.9,33.48V30.33l2.58-.67,0.29-3.82H23.9V16.93h6.77Z"/></svg>