<svg id="Capa_1" data-name="Capa 1" xmlns="http://www.w3.org/2000/svg" viewBox="0 0 46.67 44.31"><defs><style>.cls-1{fill:#587dbc;}.cls-2{fill:#fff;}.cls-3{fill:#799dd2;}</style></defs><title>opciones</title><path class="cls-1" d="M11.85,12.22l2.09,23.29,9.39,2.81,9.39-2.72,2.09-23.38h-23Z"/><polygon class="cls-2" points="17.39 10.03 17.39 5.99 20.59 5.99 20.59 7.2 18.64 7.2 18.64 8.78 20.59 8.78 20.59 10.03 17.39 10.03"/><polygon class="cls-2" points="21.15 10.03 21.15 8.92 22.88 8.92 21.15 7.11 21.15 5.99 24.87 5.99 24.87 7.06 23.35 7.06 24.87 8.92 24.87 10.03 21.15 10.03"/><polygon class="cls-2" points="25.66 10.03 25.66 9.01 27.38 9.01 25.66 7.15 25.66 5.99 29.24 5.99 29.24 6.92 27.45 6.92 29.43 8.96 29.43 10.03 25.66 10.03"/><polygon class="cls-3" points="23.34 15.2 23.4 35.45 31.11 33.24 32.37 15.13 23.34 15.2"/><path class="cls-2" d="M30.22,19.95l-6.51,3H30l-0.74,9-5.93,1.63L17.39,31.8l-0.33-4.56,2.79,0,0.28,2.23,3.18,0.93,3-.84,0.37-3.63-9.9-.09-0.19-2.93L23.35,20l-7-.09-0.19-2.88H30.45Z"/></svg>