<svg id="Capa_1" data-name="Capa 1" xmlns="http://www.w3.org/2000/svg" viewBox="0 0 46.67 44.31"><defs><style>.cls-1{fill:#d36a3b;}.cls-2{fill:#fff;}</style></defs><title>opciones</title><path class="cls-1" d="M11.88,37.78a5,5,0,0,1-1.56-.7,5.7,5.7,0,0,1-1.19-1.15,6,6,0,0,1-.7-1.54C8.3,33.92,8.3,33.73,8.3,22.27s0-11.65.13-12.14A4.73,4.73,0,0,1,12,6.68c0.51-.11,23.26-0.13,23.81,0a4.68,4.68,0,0,1,3.33,2.55c0.54,1.07.49-.11,0.51,12.62,0,8.1,0,11.5-.05,11.92a4.68,4.68,0,0,1-3.58,4c-0.5.13-.68,0.13-12.11,0.13C12.88,37.9,12.32,37.89,11.88,37.78Z"/><path class="cls-2" d="M28.43,31.9A5.81,5.81,0,0,0,32,30.08a5.91,5.91,0,0,0,1.53-2.69A13.62,13.62,0,0,0,33.66,24a29,29,0,0,0,0-3.21,1.25,1.25,0,0,0-.54-0.8A5.47,5.47,0,0,0,32,19.89a2.16,2.16,0,0,1-1.24-.22,1.18,1.18,0,0,1-.56-1.28,5.59,5.59,0,0,0-1.77-4,6.61,6.61,0,0,0-2.84-1.76,15.26,15.26,0,0,0-2.74-.13c-3,0-3.67,0-4.7.43a6.18,6.18,0,0,0-3.74,4.37,30.3,30.3,0,0,0-.13,4.51c0,4.4,0,5,.28,5.92a5.24,5.24,0,0,0,.93,1.79,6,6,0,0,0,3.6,2.3c0.64,0.12,8.55.14,9.36,0h0Z"/><path class="cls-1" d="M20.11,19.82a1.1,1.1,0,0,1-.46-1.77c0.34-.34.43-0.35,2.55-0.35,1.9,0,2,0,2.25.15a1,1,0,0,1,.58.95,1,1,0,0,1-.53.94c-0.2.13-.32,0.13-2.18,0.14A20.8,20.8,0,0,1,20.11,19.82Zm-0.09,7A1.09,1.09,0,0,1,19.73,25c0.31-.28.44-0.29,4.22-0.29s3.86,0,4.23.34A1.07,1.07,0,0,1,28,26.72l-0.64.1-3.36,0A22.87,22.87,0,0,1,20,26.77Z"/></svg>