<svg id="Capa_1" data-name="Capa 1" xmlns="http://www.w3.org/2000/svg" viewBox="0 0 46.67 44.31"><defs><style>.cls-1{fill:#6ebcc4;}.cls-2{fill:#fff;}</style></defs><title>opciones</title><circle class="cls-1" cx="23.34" cy="22.16" r="14.53"/><path class="cls-2" d="M23.67,22.4a4.8,4.8,0,0,1,1.23-.92,0.69,0.69,0,0,1,.82,0,0.67,0.67,0,0,1,0,.78c-0.15.53-.31,1.06-0.45,1.59a0.41,0.41,0,0,0,0,.47,0.45,0.45,0,0,0,.51,0,1.38,1.38,0,0,0,1-1.43,1.36,1.36,0,0,1,.43-1.3,0.47,0.47,0,0,1,.58-0.14c0.21,0.15.06,0.33,0,.5a4.3,4.3,0,0,0-.17,2,0.48,0.48,0,0,0,.14.41c0.19,0.07.27-.17,0.39-0.26a3.17,3.17,0,0,0,.3-0.35,0.58,0.58,0,0,0,.06-0.95,1.5,1.5,0,0,1,.12-1.83,0.85,0.85,0,0,1,1-.25,0.79,0.79,0,0,1,.49.81,3.33,3.33,0,0,1-.31,1.17,0.86,0.86,0,0,0,.88-0.37,2.32,2.32,0,0,1,2-.88,0.86,0.86,0,0,1,.93.87,0.67,0.67,0,0,1-1,.53c-0.19-.1-0.17-0.2,0-0.29a0.28,0.28,0,0,0,.16-0.34,0.42,0.42,0,0,0-.37-0.29,0.94,0.94,0,0,0-.66.15,2,2,0,0,0-.67,2.13,0.45,0.45,0,0,0,.8.19,1.53,1.53,0,0,0,.39-0.61,1.67,1.67,0,0,1,.2-0.41A0.53,0.53,0,0,1,33.16,23c0.26,0.11.13,0.38,0.09,0.57a1.71,1.71,0,0,0,.26,1.81,0.14,0.14,0,0,1,0,.2h0a0.22,0.22,0,0,1-.25,0,1.52,1.52,0,0,1-.87-0.78c-0.06-.12-0.08-0.3-0.27-0.12a1,1,0,0,1-1.31.11,1.31,1.31,0,0,1-.6-1.3c0-.11,0-0.21,0-0.33a1.49,1.49,0,0,0-1.3.67,3,3,0,0,1-1.07,1c-0.57.33-.79,0.23-0.94-0.4,0-.09,0-0.17-0.07-0.33a4.37,4.37,0,0,1-1.25.79,0.83,0.83,0,0,1-1.24-1,6.51,6.51,0,0,1,.39-1.37c0-.11.14-0.24,0-0.33a0.26,0.26,0,0,0-.28.11A3.06,3.06,0,0,0,23.31,24a2.71,2.71,0,0,1-.18.61,0.63,0.63,0,0,1-.67.4c-0.3-.05-0.11-0.36-0.19-0.55-0.32.17-.63,0.33-0.94,0.48a0.59,0.59,0,0,1-.69,0c-0.28-.33-0.47-0.22-0.76,0a1,1,0,0,1-1.31-.3c-0.2-.23-0.3-0.21-0.49,0a4.33,4.33,0,0,1-1.35.94,2.66,2.66,0,0,1-4-2.3,6.24,6.24,0,0,1,3-5.8,2.19,2.19,0,0,1,1.85-.31,1.64,1.64,0,0,1,1.22,1.68,1.71,1.71,0,0,1-1.3,1.55,0.29,0.29,0,0,1-.33,0C17,20.15,17.16,20,17.27,20a1.76,1.76,0,0,0,.55-1.75,0.77,0.77,0,0,0-1.14-.65,2.81,2.81,0,0,0-1.1.82,7,7,0,0,0-1.76,3.92,3.15,3.15,0,0,0,.32,1.83,1.71,1.71,0,0,0,2,1,4.17,4.17,0,0,0,1.87-1,0.8,0.8,0,0,0,.22-0.58,2.32,2.32,0,0,1,2.44-2.12,1.19,1.19,0,0,1,.79.33,0.67,0.67,0,0,1,.16.76,0.63,0.63,0,0,1-.68.37,0.38,0.38,0,0,1-.33-0.14c-0.11-.17.1-0.18,0.17-0.26a0.34,0.34,0,0,0-.24-0.58,0.92,0.92,0,0,0-.88.28,2,2,0,0,0-.56,1.77,0.6,0.6,0,0,0,.41.56,0.62,0.62,0,0,0,.62-0.32,1.44,1.44,0,0,0,.26-0.53,0.85,0.85,0,0,1,.28-0.47A0.47,0.47,0,0,1,21.23,23c0.2,0.12.08,0.31,0.08,0.47s-0.32.64,0.08,0.86a1.59,1.59,0,0,0,1.12-.82c0.11-.48.19-1,0.29-1.44A0.82,0.82,0,0,1,23,21.61a0.6,0.6,0,0,1,.67-0.17c0.25,0.11.13,0.33,0.1,0.53s0,0.23-.07.43h0Zm5.63-1.11A0.26,0.26,0,0,0,29,21.07a0.25,0.25,0,0,0-.2.27,1.17,1.17,0,0,0,.38,1A1.4,1.4,0,0,0,29.31,21.29Z"/></svg>