<svg id="Capa_1" data-name="Capa 1" xmlns="http://www.w3.org/2000/svg" viewBox="0 0 46.67 44.31"><defs><style>.cls-1{fill:#da492b;}.cls-2{fill:#e37a40;}.cls-3{fill:#e59a44;}.cls-4{fill:#69b362;}.cls-5{fill:#a2c931;}.cls-6{fill:#d4d144;}.cls-7{fill:#3a66b2;}.cls-8{fill:#6599c9;}.cls-9{fill:#87b9db;}.cls-10{fill:#fff;}</style></defs><title>opciones</title><rect class="cls-1" x="9.65" y="8.49" width="8.32" height="8.21"/><rect class="cls-2" x="19.17" y="8.49" width="8.32" height="8.21"/><rect class="cls-3" x="28.7" y="8.49" width="8.32" height="8.21"/><rect class="cls-4" x="9.65" y="18.05" width="8.32" height="8.21"/><rect class="cls-5" x="19.17" y="18.05" width="8.32" height="8.21"/><rect class="cls-6" x="28.7" y="18.05" width="8.32" height="8.21"/><rect class="cls-7" x="9.65" y="27.61" width="8.32" height="8.21"/><rect class="cls-8" x="19.17" y="27.61" width="8.32" height="8.21"/><rect class="cls-9" x="28.7" y="27.61" width="8.32" height="8.21"/><path class="cls-10" d="M14.35,15.19h-1V10.74h-1.7V9.93H16v0.81H14.35v4.45Z"/><path class="cls-10" d="M23,15.19V9.93h1v5.26H23Z"/><path class="cls-10" d="M33.32,12.38q0.57,0.81.92,1.43h0q0-1,0-1.49V9.93h1v5.26h-1l-1.71-2.42q-0.45-.63-0.94-1.46h0q0,1,0,1.5v2.38h-1V9.93h1Z"/><path class="cls-10" d="M11.7,24.76V19.51h1V21.9h0l2-2.39h1.19l-2.19,2.61L16,24.76H14.8l-2.13-2.37h0v2.37h-1Z"/><path class="cls-10" d="M22.63,24h2.59v0.81H21.67V19.51h3.41v0.81H22.63v1.36h2.1v0.81h-2.1V24Z"/><path class="cls-10" d="M34.67,21.09a1.45,1.45,0,0,1-.3.93,1.8,1.8,0,0,1-.94.57v0L35,24.76H33.83l-1.43-2H31.74v2h-1V19.51h1.6a5.65,5.65,0,0,1,.74,0,2.72,2.72,0,0,1,.59.14,1.52,1.52,0,0,1,.72.52A1.45,1.45,0,0,1,34.67,21.09Zm-2.45.84a4.5,4.5,0,0,0,.56,0,1.75,1.75,0,0,0,.39-0.09,0.75,0.75,0,0,0,.4-0.3,0.85,0.85,0,0,0,.11-0.44,0.77,0.77,0,0,0-.09-0.38,0.6,0.6,0,0,0-.3-0.26,1.27,1.27,0,0,0-.35-0.09,3.77,3.77,0,0,0-.51,0H31.74v1.61h0.48Z"/><path class="cls-10" d="M14.68,29.67a2,2,0,0,0-.72.13,1.57,1.57,0,0,0-.57.38,1.73,1.73,0,0,0-.37.61,2.4,2.4,0,0,0-.13.83,2.49,2.49,0,0,0,.12.82,1.57,1.57,0,0,0,.35.59,1.45,1.45,0,0,0,.56.36,2.16,2.16,0,0,0,.74.12,4.05,4.05,0,0,0,.61,0,3.5,3.5,0,0,0,.58-0.14v0.83a4.43,4.43,0,0,1-.59.12,4.69,4.69,0,0,1-.66,0,3.33,3.33,0,0,1-1.17-.19,2.29,2.29,0,0,1-.85-0.54,2.24,2.24,0,0,1-.51-0.83,3.2,3.2,0,0,1-.17-1.07,3.31,3.31,0,0,1,.18-1.12,2.6,2.6,0,0,1,.53-0.89,2.39,2.39,0,0,1,.86-0.59,3.05,3.05,0,0,1,1.17-.22,4.23,4.23,0,0,1,.63,0,3.07,3.07,0,0,1,.54.13v0.82a3.81,3.81,0,0,0-.59-0.14A3.7,3.7,0,0,0,14.68,29.67Z"/><path class="cls-10" d="M24.44,32.88h-2l-0.52,1.34h-1L23,29h0.88L26,34.22H25Zm-1-2.65q-0.28.83-.49,1.38l-0.18.47h1.36l-0.18-.47q-0.21-.56-0.49-1.38h0Z"/><path class="cls-10" d="M30.62,34.22V29h1.77l0.37,0,0.35,0.06,0.31,0.08a2.68,2.68,0,0,1,.74.36,2.22,2.22,0,0,1,.54.54,2.34,2.34,0,0,1,.33.69,3,3,0,0,1,.11.83,3.22,3.22,0,0,1-.09.8,2.35,2.35,0,0,1-.29.68,2.16,2.16,0,0,1-.49.54,2.5,2.5,0,0,1-.69.38,3.69,3.69,0,0,1-.76.19,6.56,6.56,0,0,1-1,.06H30.62ZM32,33.41a3.07,3.07,0,0,0,1.32-.23,1.42,1.42,0,0,0,.64-0.61,2.11,2.11,0,0,0,.22-1A2.21,2.21,0,0,0,34.08,31a1.59,1.59,0,0,0-.2-0.46,1.41,1.41,0,0,0-.32-0.35,1.78,1.78,0,0,0-.43-0.24,2.28,2.28,0,0,0-.5-0.13,4.39,4.39,0,0,0-.62,0H31.59v3.65H32Z"/></svg>