<svg id="Capa_1" data-name="Capa 1" xmlns="http://www.w3.org/2000/svg" viewBox="0 0 46.67 44.31"><defs><style>.cls-1{fill:#5387c6;}.cls-2{fill:#416fae;}.cls-3{fill:#4476b4;}.cls-4{fill:#6297d0;}</style></defs><title>opciones</title><path class="cls-1" d="M8.88,17.74s-0.72-.52.14-1.21l2-1.79a0.85,0.85,0,0,1,1.18-.08l18.52,14v6.72a1.06,1.06,0,0,1-1.36.94Z"/><path class="cls-2" d="M13.65,22.08L8.88,26.42a0.68,0.68,0,0,0,0,1l2.22,2a0.91,0.91,0,0,0,1.3-.08l5.06-3.84Z"/><path class="cls-3" d="M22,22.11l8.76-6.69L30.73,8.74A1,1,0,0,0,29.11,8L17.46,18.64Z"/><path class="cls-4" d="M29.37,36.36a1.2,1.2,0,0,0,1.12.35l6.82-3.36A1.44,1.44,0,0,0,38.07,32V11.93a1.34,1.34,0,0,0-.9-1.19L31.25,7.9A1.64,1.64,0,0,0,29.11,8a1,1,0,0,1,1.62.7V35.29a1.21,1.21,0,0,1-.12.52,1.08,1.08,0,0,1-1.3.48Z"/></svg>