<svg id="Capa_1" data-name="Capa 1" xmlns="http://www.w3.org/2000/svg" xmlns:xlink="http://www.w3.org/1999/xlink" viewBox="0 0 46.67 44.31"><defs><style>.cls-1{fill:#741b26;}.cls-2{fill:#952534;}.cls-3{fill:#af5060;}.cls-4{fill:#c87f92;}.cls-5{opacity:0.1;}.cls-5,.cls-6{isolation:isolate;}.cls-6{opacity:0.2;}.cls-7{fill:url(#Degradado_sin_nombre_3);}.cls-8{fill:#fff;}</style><linearGradient id="Degradado_sin_nombre_3" x1="825.41" y1="-2698.1" x2="835.55" y2="-2680.54" gradientTransform="translate(-814.56 2711.47)" gradientUnits="userSpaceOnUse"><stop offset="0" stop-color="#9c3041"/><stop offset="0.5" stop-color="#972837"/><stop offset="1" stop-color="#851c27"/></linearGradient></defs><title>opciones</title><path class="cls-1" d="M15.21,26.39v7.06c0,2,5.22,3.53,11.66,3.53s11.66-1.58,11.66-3.53V26.39H15.21Z"/><path class="cls-2" d="M15.21,18.62v7.77c0,2,5.22,3.53,11.66,3.53s11.66-1.58,11.66-3.53V18.62H15.21Z"/><path class="cls-3" d="M15.21,10.85v7.77c0,2,5.22,3.53,11.66,3.53s11.66-1.58,11.66-3.53V10.85H15.21Z"/><ellipse class="cls-4" cx="26.87" cy="10.85" rx="11.66" ry="3.53"/><path class="cls-5" d="M23.81,13.68H15.21V31.34h8.59A1.3,1.3,0,0,0,25.1,30V15A1.3,1.3,0,0,0,23.81,13.68Z"/><path class="cls-6" d="M23.1,14.38H15.21V32H23.1a1.3,1.3,0,0,0,1.29-1.29V15.68A1.3,1.3,0,0,0,23.1,14.38Z"/><path class="cls-6" d="M23.1,14.38H15.21V30.63H23.1a1.3,1.3,0,0,0,1.29-1.29V15.68A1.3,1.3,0,0,0,23.1,14.38Z"/><path class="cls-6" d="M22.39,14.38H15.21V30.63h7.18a1.3,1.3,0,0,0,1.29-1.29V15.68a1.3,1.3,0,0,0-1.29-1.29h0Z"/><path class="cls-7" d="M9.44,14.38h13a1.29,1.29,0,0,1,1.29,1.29v13a1.29,1.29,0,0,1-1.29,1.29h-13a1.29,1.29,0,0,1-1.29-1.29v-13A1.29,1.29,0,0,1,9.44,14.38Z"/><path class="cls-8" d="M15,17.95H16.9L20,26.36h-1.8l-0.68-2H14.33l-0.66,2H11.88L15,17.95h0Zm2.09,5.11-1-3a4,4,0,0,1-.18-0.69h0a3.89,3.89,0,0,1-.18.71l-1,3h2.36Z"/></svg>