<svg id="Capa_1" data-name="Capa 1" xmlns="http://www.w3.org/2000/svg" viewBox="0 0 46.67 44.31"><defs><style>.cls-1{fill:none;stroke:#fff;stroke-miterlimit:10;stroke-width:0.48px;}</style></defs><title>opciones</title><line class="cls-1" x1="10.64" y1="23.97" x2="15.11" y2="18.15"/><line class="cls-1" x1="15.28" y1="23.97" x2="10.86" y2="18.33"/><line class="cls-1" x1="16.46" y1="26.16" x2="16.46" y2="18.33"/><path class="cls-1" d="M21.47,21a2.47,2.47,0,1,1-4.92,0A2.47,2.47,0,1,1,21.47,21Z"/><line class="cls-1" x1="22.79" y1="23.97" x2="22.79" y2="18.33"/><path class="cls-1" d="M25.24,18.44s-2.47.37-2.47,2.14"/><path class="cls-1" d="M31.54,22.24A2,2,0,0,0,33.66,24c1.93,0,2.14-1.12,2.14-1.73S34.4,21.1,33.67,21s-1.94-.42-1.94-1.37,1.05-1.31,1.94-1.31a1.7,1.7,0,0,1,1.94,1.47"/><path class="cls-1" d="M37.19,22.24A2,2,0,0,0,39.31,24c1.93,0,2.14-1.12,2.14-1.73S40.05,21.1,39.32,21s-1.94-.42-1.94-1.37,1.05-1.31,1.94-1.31a1.7,1.7,0,0,1,1.94,1.47"/><path class="cls-1" d="M5.44,21.17h4.77s0.18-2.93-2.38-2.93-2.6,2.41-2.6,2.93,0.31,2.89,2.5,2.89a2.32,2.32,0,0,0,2.5-1.75"/><path class="cls-1" d="M25.66,21.17h4.77S30.6,18.24,28,18.24s-2.6,2.41-2.6,2.93,0.31,2.89,2.5,2.89a2.32,2.32,0,0,0,2.5-1.75"/></svg>