<svg id="Capa_1" data-name="Capa 1" xmlns="http://www.w3.org/2000/svg" viewBox="0 0 46.67 44.31"><defs><style>.cls-1{fill:#7ebfdb;}</style></defs><title>opciones</title><path class="cls-1" d="M26.53,22.13a3.2,3.2,0,1,0-3.19,3.1A3.15,3.15,0,0,0,26.53,22.13Z"/><path class="cls-1" d="M33.71,16.38c0.67-2.66,1.52-7.59-1.47-9.26s-6.85,1.52-8.89,3.44c-2-1.89-6-5.07-9-3.39S12.29,13.68,13,16.35c-2.77.76-7.53,2.41-7.53,5.77S10.2,27.27,13,28c-0.69,2.69-1.56,7.47,1.41,9.13s7-1.42,9-3.36c2.06,1.92,5.89,5,8.87,3.37s2.21-6.54,1.52-9.23c2.67-.76,7.43-2.52,7.43-5.83S36.44,17.14,33.71,16.38ZM33.37,26.53a34.16,34.16,0,0,0-1.81-4.39A34.13,34.13,0,0,0,33.3,17.8c2,0.56,6.39,1.85,6.39,4.32S35.48,25.92,33.37,26.53ZM31.5,35.9c-2.22,1.25-5.52-1.74-7-3.15a35,35,0,0,0,3-3.69,36.69,36.69,0,0,0,4.84-.72C32.8,30.23,33.73,34.65,31.5,35.9Zm-16.37,0c-2.22-1.24-1.21-5.5-.7-7.49a37,37,0,0,0,4.82.68,36.3,36.3,0,0,0,3.07,3.68C21,34,17.37,37.13,15.14,35.88ZM7,22.13c0-2.51,4.36-3.78,6.41-4.34a34.89,34.89,0,0,0,1.74,4.38,35.4,35.4,0,0,0-1.77,4.44C11.42,26.06,7,24.63,7,22.13ZM15.11,8.45c2.23-1.25,5.69,1.8,7.17,3.17a35.74,35.74,0,0,0-3,3.66,38.42,38.42,0,0,0-4.77.72C13.91,13.83,12.89,9.7,15.11,8.45Zm13.45,8.43c1.14,0.14,2.23.33,3.26,0.55a31,31,0,0,1-1.14,3Q29.69,18.61,28.56,16.88Zm-5.2-4.21a31.94,31.94,0,0,1,2.11,2.46q-2.11-.1-4.23,0C21.93,14.25,22.64,13.42,23.35,12.67ZM16,20.42a32.06,32.06,0,0,1-1.14-3c1-.22,2.11-0.4,3.24-0.54Q17,18.6,16,20.42Zm2.14,7.06c-1.17-.13-2.28-0.3-3.3-0.51A32.6,32.6,0,0,1,16,23.9Q17,25.74,18.15,27.48Zm5.25,4.2c-0.72-.76-1.45-1.6-2.15-2.5,1.42,0.05,2.84.05,4.25,0A31.73,31.73,0,0,1,23.4,31.68Zm7.29-7.83a30.89,30.89,0,0,1,1.2,3.05,33.35,33.35,0,0,1-3.34.55C29.32,26.28,30,25.08,30.69,23.85Zm-4.08,3.78a49.47,49.47,0,0,1-6.51,0,41.64,41.64,0,0,1-3.27-5.48,41.62,41.62,0,0,1,3.26-5.47,44.44,44.44,0,0,1,6.52,0,46.67,46.67,0,0,1,3.27,5.45A46.68,46.68,0,0,1,26.61,27.63ZM31.48,8.4c2.23,1.25,1.24,5.68.75,7.6a37.68,37.68,0,0,0-4.78-.73,35,35,0,0,0-3-3.66C25.92,10.21,29.27,7.17,31.48,8.4Z"/></svg>