<svg id="Capa_1" data-name="Capa 1" xmlns="http://www.w3.org/2000/svg" viewBox="0 0 46.67 44.31"><defs><style>.cls-1{fill:#125f98;}.cls-2{fill:#004d8d;}.cls-3{fill:#fff;}</style></defs><title>opciones</title><circle class="cls-1" cx="23.34" cy="22.16" r="16.75" transform="translate(-8.81 23.59) rotate(-46.07)"/><path class="cls-2" d="M35.4,33.78A16.75,16.75,0,1,0,11.27,10.53Z"/><path class="cls-3" d="M23.68,15.44L18.88,28.8H17L12.42,15.44h2.12l3.06,9.7A9.51,9.51,0,0,1,18,27h0a9.63,9.63,0,0,1,.38-1.81l3.2-9.76h2Z"/><path class="cls-3" d="M31.22,21.62c1.54,0,2.34-2,2.34-3.35a3.2,3.2,0,0,0-3.49-2.91H26v13.4h4.27a3.87,3.87,0,0,0,4-3.92C34.24,22.17,31.22,21.62,31.22,21.62Zm-3.6-4.82h2.06a2.11,2.11,0,0,1,2.2,1.81,2.52,2.52,0,0,1-2.55,2.52h-1.7V16.8Zm2.16,10.6H27.63V22.47h2c1.13,0,2.94.57,2.94,2.2A2.77,2.77,0,0,1,29.79,27.4Z"/></svg>