<svg id="Capa_1" data-name="Capa 1" xmlns="http://www.w3.org/2000/svg" viewBox="0 0 46.67 44.31"><defs><style>.cls-1{fill:#0089aa;stroke:#fff;stroke-miterlimit:10;stroke-width:0.28px;}.cls-2{fill:#e79824;}</style></defs><title>opciones</title><path class="cls-1" d="M8.78,24.09l1-5.28H11l-0.21,1.45h1.16a1.13,1.13,0,0,1,1.33,1.45c-0.33,1.66-.45,2.38-0.45,2.38H11.66l0.47-2.41s0.23-.63-0.61-0.63h-1l-0.57,3H8.78Z"/><path class="cls-1" d="M7.2,20.26H5L3.9,25.5H5.07l0.23-1.33c1.87,0,3.2-.19,3.57-2.08S7.2,20.26,7.2,20.26Zm-0.74,3c-0.78,0-1,0-1,0l0.44-2.2H6.62a1,1,0,0,1,1.12.54A1.47,1.47,0,0,1,6.46,23.25Z"/><path class="cls-1" d="M16.13,20.26H13.88L12.83,25.5H14l0.23-1.33c1.87,0,3.2-.19,3.57-2.08S16.13,20.26,16.13,20.26Zm-0.74,3c-0.78,0-1,0-1,0l0.44-2.2h0.71a1,1,0,0,1,1.12.54A1.47,1.47,0,0,1,15.39,23.25Z"/><polygon class="cls-2" points="18.23 24.16 19.44 20.33 20.58 20.33 20.64 23.1 22.51 20.36 23.72 20.36 22.45 24.29 21.66 24.29 22.62 21.39 20.73 24.16 19.94 24.16 19.88 21.21 18.93 24.2 18.23 24.16"/><path class="cls-2" d="M24.07,21.35h0.79l-0.6,1.79s-0.24.4,0.36,0.4h0.6l0.69-2.15h0.76s-0.66,2-.83,2.46a1.6,1.6,0,0,1-1.53,1.38H22.89l0.19-.58h1.13A0.71,0.71,0,0,0,25,24.17H24.12a0.66,0.66,0,0,1-.65-1Z"/><path class="cls-2" d="M33.45,24.19l0.93-2.85h3.16c0.52,0,.77.38,0.4,1.45s-0.5,1.4-.5,1.4H36.69s0.42-1.28.51-1.56S37.48,22,37,22H36.56l-0.81,2.23H35L35.7,22H34.94l-0.73,2.21Z"/><polygon class="cls-2" points="38.08 24.18 39.01 21.37 39.83 21.37 38.87 24.23 38.08 24.18"/><path class="cls-2" d="M39.49,24.16l0.94-2.82h1.39c0.61,0,1.22,0,.82,1.3a10.58,10.58,0,0,1-.58,1.61H41.23s0.47-1.4.66-2C42,21.91,41.18,22,41,22c-0.37,1-.76,2.21-0.76,2.21Z"/><path class="cls-2" d="M33.33,20.36l-0.36,1A2.1,2.1,0,0,0,30.42,23a0.87,0.87,0,0,0,.79,1.23h1.63l1.25-3.85H33.33Zm-1,3.12s0,0.07-.36.07c-0.76,0-.89-0.23-0.68-0.87a1.07,1.07,0,0,1,1.43-.54Z"/><path class="cls-2" d="M29.69,20.35H28.82L26,24.12l0.86,0.07,0.6-.88h1.65l0,0.91H30ZM28,22.47l0.87-1.17L29,22.55Z"/></svg>