<svg id="Capa_1" data-name="Capa 1" xmlns="http://www.w3.org/2000/svg" viewBox="0 0 46.67 44.31"><defs><style>.cls-1{fill:#ce6a23;}.cls-2{fill:#fff;}.cls-3{fill:#d78344;}</style></defs><title>opciones</title><path class="cls-1" d="M11.45,12l2.27,24.34L23.34,39l9.79-2.81L35.22,12H11.45Z"/><polygon class="cls-2" points="14.83 5.31 16.22 5.31 16.22 6.65 17.43 6.65 17.43 5.31 18.72 5.31 18.72 9.3 17.33 9.3 17.33 8 16.22 8 16.22 9.3 14.83 9.3 14.83 5.31"/><polygon class="cls-2" points="21.9 9.3 20.41 9.3 20.41 6.56 19.25 6.56 19.25 5.31 23 5.31 23 6.51 21.8 6.51 21.9 9.3"/><polygon class="cls-2" points="23.58 9.3 23.58 5.31 25.17 5.31 25.8 6.61 26.61 5.31 27.96 5.31 27.96 9.3 26.9 9.3 26.9 7.3 25.77 8.77 24.79 7.3 24.79 9.3 23.58 9.3"/><polygon class="cls-2" points="28.78 9.3 28.78 5.31 30.12 5.31 30.12 7.95 31.9 7.95 31.9 9.3 28.78 9.3"/><polygon class="cls-3" points="23.34 15.07 23.41 36.04 31.39 33.75 32.69 15.01 23.34 15.07"/><path class="cls-2" d="M30.68,19.8H19.13L19.49,23H30.68L29.6,32.28,23.34,34l-6-1.73-0.51-4.91L20,27.3l0.14,2.53,3.19,0.72,3.37-.72,0.43-3.9H16.61L15.74,17H30.68V19.8Z"/></svg>