<svg id="Capa_1" data-name="Capa 1" xmlns="http://www.w3.org/2000/svg" viewBox="0 0 46.67 44.31"><defs><style>.cls-1{fill:#6c8bb8;}.cls-2{fill:#304872;}.cls-3{fill:#38598a;}.cls-4{fill:#fff;}</style></defs><title>opciones</title><path class="cls-1" d="M38,15.38a2.9,2.9,0,0,0-.36-1.46,2.79,2.79,0,0,0-1.06-1L24.86,6.15a2.87,2.87,0,0,0-3.11,0c-1.55.91-9.31,5.36-11.63,6.7a2.7,2.7,0,0,0-1.42,2.49q0,6.78,0,13.55A2.92,2.92,0,0,0,9,30.36a2.78,2.78,0,0,0,1.07,1.06c2.31,1.34,10.08,5.79,11.63,6.7a2.87,2.87,0,0,0,3.11,0l11.69-6.73a2.78,2.78,0,0,0,1.07-1.06A2.92,2.92,0,0,0,38,28.93s0-9,0-13.55"/><path class="cls-2" d="M23.38,22.11L9,30.36a2.78,2.78,0,0,0,1.07,1.06c2.31,1.34,10.08,5.79,11.63,6.7a2.87,2.87,0,0,0,3.11,0l11.69-6.73a2.78,2.78,0,0,0,1.07-1.06L23.38,22.11"/><path class="cls-2" d="M19.14,24.56a4.84,4.84,0,0,0,8.42,0l-4.17-2.42-4.25,2.44"/><path class="cls-3" d="M38,15.38a2.9,2.9,0,0,0-.36-1.46L23.38,22.11l14.24,8.25A2.92,2.92,0,0,0,38,28.93s0-9,0-13.55"/><path class="cls-4" d="M37.18,22.7H36.07v1.11H35V22.7H33.84V21.59H35V20.47h1.11v1.11h1.11V22.7m-4.06,0H32v1.11H30.89V22.7H29.78V21.59h1.11V20.47H32v1.11h1.11V22.7"/><path class="cls-4" d="M27.55,24.53a4.84,4.84,0,1,1,0-4.8l4.23-2.44a9.72,9.72,0,1,0,0,9.68l-4.22-2.45"/></svg>