<svg id="Capa_1" data-name="Capa 1" xmlns="http://www.w3.org/2000/svg" viewBox="0 0 46.67 44.31"><defs><style>.cls-1{fill:#6e9440;}.cls-2{fill:#80a950;}.cls-3{fill:#bfbdbd;}.cls-4{fill:#fff;}</style></defs><title>opciones</title><path class="cls-1" d="M23.47,6.32L24.16,7.6a3.87,3.87,0,0,0,.52.64,17.8,17.8,0,0,1,1.6,1.81,15.73,15.73,0,0,1,2.5,5,12.4,12.4,0,0,1,.53,3.42,12.06,12.06,0,0,1-3.52,8.9,10,10,0,0,1-1.26,1.07,0.53,0.53,0,0,1-.45-0.35,2.87,2.87,0,0,1-.35-1,4.82,4.82,0,0,1-.11-1.27v-0.2S23.39,6.42,23.47,6.32h0Z"/><path class="cls-2" d="M23.47,6.28c0-.06-0.06,0-0.08,0a1.29,1.29,0,0,1-.24.77,3.66,3.66,0,0,1-.61.61,13.35,13.35,0,0,0-3,3.82,15.31,15.31,0,0,0-1.73,6.25,20.76,20.76,0,0,0,.5,4.4,13.34,13.34,0,0,0,3.5,5.51,15.66,15.66,0,0,0,1.24,1.06,0.2,0.2,0,0,0,.17-0.2A3.72,3.72,0,0,0,23.35,28l0.28-2.09Z"/><path class="cls-3" d="M24.16,29.32a1.89,1.89,0,0,1,.35-0.85,0.88,0.88,0,0,1-.39-0.36,2.56,2.56,0,0,1-.21-0.46,8,8,0,0,1-.29-1.8V25.49a1.76,1.76,0,0,0-.08.6A13.85,13.85,0,0,1,23.28,28a1.66,1.66,0,0,1-.22.73,0.27,0.27,0,0,0,0,.1,8.29,8.29,0,0,1,.36,2.26v0.28c0,0.33,0,.26.26,0.38a1.22,1.22,0,0,1,.35.14,0.1,0.1,0,0,0,.1-0.13l0-.46V30a3.42,3.42,0,0,1,.06-0.66h0Z"/><path class="cls-4" d="M12.27,35.55v0.62a0.4,0.4,0,0,0,0,.07,0.16,0.16,0,0,0,.12.14l0.19,0a0.05,0.05,0,0,1,.05.06c0,0.14,0,.16-0.14.15a8.09,8.09,0,0,0-.94,0h0c-0.1,0-.11,0-0.11-0.1s0,0,0-.05a0,0,0,0,1,0,0l0.19,0a0.17,0.17,0,0,0,.14-0.16,2.33,2.33,0,0,0,0-.29V34.85a0.17,0.17,0,0,0-.09-0.16,1.21,1.21,0,0,0-.23-0.1l-0.07,0a0.06,0.06,0,0,1,0-.11l0.07,0a3.73,3.73,0,0,0,.73-0.18s0.06,0,.07,0a0.33,0.33,0,0,1,0,.09,1.13,1.13,0,0,0,0,.16,0.06,0.06,0,0,0,0,.05,0.06,0.06,0,0,0,.06,0,2.16,2.16,0,0,1,.27-0.18A1.26,1.26,0,0,1,13,34.24a0.61,0.61,0,0,1,.49.15,1,1,0,0,1,.16.18c0,0.06,0,.06.1,0a2.47,2.47,0,0,1,.49-0.29,0.76,0.76,0,0,1,.56,0,0.67,0.67,0,0,1,.4.39,1.1,1.1,0,0,1,.09.46v1.09a0.16,0.16,0,0,0,.1.16l0.24,0.06c0.05,0,.05,0,0.05.07s0,0.14-.15.13a8.45,8.45,0,0,0-1,0c-0.07,0-.07,0-0.07-0.06v0c0-.11,0-0.11.1-0.13l0.11,0a0.16,0.16,0,0,0,.13-0.16V35.11a0.6,0.6,0,0,0,0-.21,0.5,0.5,0,0,0-.54-0.31,0.93,0.93,0,0,0-.44.18,0.09,0.09,0,0,0,0,.09,6.34,6.34,0,0,1,0,.78V36.2a0.16,0.16,0,0,0,.14.18l0.19,0a0,0,0,0,1,0,0v0c0,0.11,0,.12-0.13.12-0.33,0-.65,0-1,0-0.11,0-.12,0-0.11-0.12s0-.07.07-0.08l0.13,0a0.18,0.18,0,0,0,.17-0.2V35.1a0.64,0.64,0,0,0-.09-0.29,0.43,0.43,0,0,0-.38-0.24,0.86,0.86,0,0,0-.48.13,0.24,0.24,0,0,0-.14.25v0.6h0Zm7.69,0v0.57a1.11,1.11,0,0,0,0,.12,0.12,0.12,0,0,0,.1.11l0.22,0a0,0,0,0,1,.05.05v0c0,0.14,0,.16-0.16.15a7.86,7.86,0,0,0-.93,0H19.12a0,0,0,0,1,0,0,0.42,0.42,0,0,1,0-.17,0,0,0,0,1,0,0l0.17,0a0.15,0.15,0,0,0,.14-0.17V34.88a0.15,0.15,0,0,0-.09-0.15,1.5,1.5,0,0,0-.23-0.1l-0.07,0a0.07,0.07,0,0,1,0-.13,0.14,0.14,0,0,1,.08,0,3.46,3.46,0,0,0,.76-0.2,0,0,0,0,1,.05,0,0.14,0.14,0,0,1,0,.08v0.19a0.08,0.08,0,0,0,0,.07s0,0,.06,0a1.78,1.78,0,0,1,.4-0.25,0.81,0.81,0,0,1,.4-0.09,0.68,0.68,0,0,1,.6.4,1.06,1.06,0,0,1,.11.41v1.2a0.14,0.14,0,0,0,.1.14l0.22,0.05c0.07,0,.07,0,0.07.08v0c0,0.14,0,.14-0.16.13a8.63,8.63,0,0,0-.91,0H20.73a0,0,0,0,1,0,0,0.46,0.46,0,0,1,0-.16,0,0,0,0,1,0,0l0.19,0A0.13,0.13,0,0,0,21,36.29v-1A1.41,1.41,0,0,0,21,35a0.48,0.48,0,0,0-.42-0.38,0.77,0.77,0,0,0-.51.13A0.22,0.22,0,0,0,20,35V35.6s0,0,0,0h0Z"/><path class="cls-3" d="M31.91,34.42a1.6,1.6,0,0,0-.35-0.8,1.57,1.57,0,0,0-.63-0.46A2.26,2.26,0,0,0,30.12,33c-0.11,0-1.67,0-1.79,0a0.06,0.06,0,0,0-.07,0,0.42,0.42,0,0,0-.05.09c0,0.11,0,.1.07,0.12a2.29,2.29,0,0,1,.29.05,0.23,0.23,0,0,1,.17.17s0,1.48,0,2.15l0,0.48a0.41,0.41,0,0,1,0,.11,0.17,0.17,0,0,1-.09.11,0.5,0.5,0,0,1-.17,0,0.14,0.14,0,0,0-.16.14v0c0,0.05,0,.06,0,0.06H30l0.33,0a2.05,2.05,0,0,0,1-.47,1.64,1.64,0,0,0,.39-0.51,1.83,1.83,0,0,0,.18-0.73,1.38,1.38,0,0,0,0-.44h0ZM31.31,35a1.62,1.62,0,0,1-.2.74,1.13,1.13,0,0,1-.76.58,1.34,1.34,0,0,1-.45,0,1.36,1.36,0,0,1-.32-0.06,0.34,0.34,0,0,1-.25-0.36V33.47a0.15,0.15,0,0,1,.17-0.18,2.93,2.93,0,0,1,.48,0,1.84,1.84,0,0,1,.49.12,1.18,1.18,0,0,1,.32.2,1.42,1.42,0,0,1,.45.7,2,2,0,0,1,.07.68h0Zm4,0.4a0.36,0.36,0,0,0,0-.07A0.78,0.78,0,0,0,35,34.81a1.29,1.29,0,0,0-.39-0.18l-0.07,0a0,0,0,0,1,0,0,1,1,0,0,0,.23-0.15A0.76,0.76,0,0,0,35,34a0.68,0.68,0,0,0,0-.26,0.7,0.7,0,0,0-.3-0.53,1.07,1.07,0,0,0-.64-0.2H32.76a2.61,2.61,0,0,1-.38,0,0.07,0.07,0,0,0-.08,0,0.58,0.58,0,0,0-.08.17,0,0,0,0,0,0,0l0.28,0a0.2,0.2,0,0,1,.2.18,1.9,1.9,0,0,1,0,.2V36a1.36,1.36,0,0,1,0,.27,0.15,0.15,0,0,1-.11.12,0.83,0.83,0,0,1-.24,0,0.1,0.1,0,0,0-.11.07,0.58,0.58,0,0,0,0,.11s0,0.07.05,0.06,1.38,0,1.64,0a2.39,2.39,0,0,0,.45-0.08,1.54,1.54,0,0,0,.68-0.4,0.87,0.87,0,0,0,.25-0.59,0.74,0.74,0,0,0,0-.16h0Zm-2-1.67V33.4a0.09,0.09,0,0,1,.09-0.1,1.16,1.16,0,0,1,.29,0,1.43,1.43,0,0,1,.29,0,0.61,0.61,0,0,1,.4.33,0.59,0.59,0,0,1,.06.25,0.79,0.79,0,0,1,0,.33,0.45,0.45,0,0,1-.34.28,5.65,5.65,0,0,1-.68,0c-0.06,0-.07,0-0.07-0.07V34.09a2.67,2.67,0,0,1,0-.36h0Zm1.33,2.19a0.63,0.63,0,0,1-.38.38,0.71,0.71,0,0,1-.3.05,2.37,2.37,0,0,1-.38,0A0.35,0.35,0,0,1,33.33,36c0-.21,0-0.42,0-0.57V34.9c0-.07,0-0.09.08-0.09h0.38l0.26,0a0.88,0.88,0,0,1,.48.25,0.67,0.67,0,0,1,.18.4,0.91,0.91,0,0,1,0,.42h0Z"/><path class="cls-4" d="M24.28,34.7l0.11,0a0.26,0.26,0,0,0,.29-0.2,0.42,0.42,0,0,0,0-.23,0.08,0.08,0,0,0,0,0,0.39,0.39,0,0,1-.2.09,1,1,0,0,1-.44,0l-0.2-.07a1.2,1.2,0,0,0-.43-0.06,1.5,1.5,0,0,0-.59.18,0.8,0.8,0,0,0-.4.48,1,1,0,0,0,0,.39,0.72,0.72,0,0,0,.47.62l0,0s0,0,0,.07l-0.1.07-0.24.15a0.09,0.09,0,0,0,0,.13,0.43,0.43,0,0,0,.13.2,0.66,0.66,0,0,0,.19.11s0,0,0,.07l-0.23.17a1.33,1.33,0,0,0-.22.2,0.4,0.4,0,0,0-.1.37,0.68,0.68,0,0,0,.21.37,0.86,0.86,0,0,0,.38.2,1.6,1.6,0,0,0,1.55-.44,0.89,0.89,0,0,0,.26-0.6,0.57,0.57,0,0,0-.44-0.6l-0.22,0-0.67-.06a0.46,0.46,0,0,1-.21-0.05,0.14,0.14,0,0,1,0-.2,0.19,0.19,0,0,1,.14-0.08h0.13A1.18,1.18,0,0,0,24,35.62a0.73,0.73,0,0,0,.21-0.35,1.09,1.09,0,0,0,0-.54s0,0,0,0h0Zm-1,2h0.07a2.35,2.35,0,0,1,.51.07L24,36.86a0.39,0.39,0,0,1,.2.41,0.52,0.52,0,0,1-.29.4,0.88,0.88,0,0,1-.35.1H23.47A1,1,0,0,1,23,37.7a0.64,0.64,0,0,1-.24-0.16,0.42,0.42,0,0,1,0-.62,0.59,0.59,0,0,1,.46-0.19h0Zm0.47-1.27a0.4,0.4,0,0,1-.46.25,0.49,0.49,0,0,1-.38-0.27,0.88,0.88,0,0,1-.07-0.65,0.4,0.4,0,0,1,.33-0.32,0.5,0.5,0,0,1,.56.27,0.89,0.89,0,0,1,.09.44,0.93,0.93,0,0,1-.06.29h0Zm-5.14-.28a1.13,1.13,0,0,0-.27-0.59,1.08,1.08,0,0,0-.83-0.36,1.43,1.43,0,0,0-.78.22,1.07,1.07,0,0,0-.48.62,1.42,1.42,0,0,0,0,.72,1.09,1.09,0,0,0,1.24.88,1.35,1.35,0,0,0,.5-0.15A1.11,1.11,0,0,0,18.49,36a1.33,1.33,0,0,0,.13-0.63ZM18,36.08a0.5,0.5,0,0,1-.42.34,0.68,0.68,0,0,1-.5-0.13A0.85,0.85,0,0,1,16.85,36a1.56,1.56,0,0,1-.11-1.07,0.61,0.61,0,0,1,.17-0.3,0.55,0.55,0,0,1,.52-0.13,0.74,0.74,0,0,1,.45.3,1.17,1.17,0,0,1,.2.52,2.36,2.36,0,0,1,0,.25,1.36,1.36,0,0,1-.08.51h0Zm9.49-.87a1.1,1.1,0,0,0-.29-0.63,1.09,1.09,0,0,0-.82-0.35,1.45,1.45,0,0,0-.76.21,1,1,0,0,0-.51.67,1.42,1.42,0,0,0,.1,1,1,1,0,0,0,.67.55,1.34,1.34,0,0,0,1-.1,1.12,1.12,0,0,0,.57-0.61,1.5,1.5,0,0,0,.09-0.54,1.15,1.15,0,0,0,0-.17h0ZM27,36a0.51,0.51,0,0,1-.44.4A0.67,0.67,0,0,1,26,36.31,0.83,0.83,0,0,1,25.76,36a1.25,1.25,0,0,1-.13-0.45,1.56,1.56,0,0,1,0-.57,0.57,0.57,0,0,1,0-.11,0.55,0.55,0,0,1,.67-0.35,0.75,0.75,0,0,1,.46.32,1.21,1.21,0,0,1,.19.54,1.12,1.12,0,0,1,0,.23A1.37,1.37,0,0,1,27,36h0Z"/></svg>