<svg id="Capa_1" data-name="Capa 1" xmlns="http://www.w3.org/2000/svg" viewBox="0 0 46.67 44.31"><defs><style>.cls-1{fill:#02979c;}</style></defs><title>opciones</title><path class="cls-1" d="M31.52,14.12c-3.66,0-7.41,4.17-8.18,5.07-0.77-.9-4.52-5.07-8.18-5.07C11,14.12,6.64,17.57,6.64,22a8.35,8.35,0,0,0,8.09,8.15c4,0,8.29-4.25,8.6-5.42,0.31,1.18,4.59,5.42,8.6,5.42A8.35,8.35,0,0,0,40,22C40,17.57,35.62,14.12,31.52,14.12ZM14.79,27.35c-4,0-5.49-3.86-5.49-5.25a5.29,5.29,0,0,1,5.68-5c4.53,0,6.82,5.13,6.82,5.13S18.84,27.35,14.79,27.35Zm17.09,0c-4,0-7-5.13-7-5.13s2.29-5.13,6.82-5.13a5.29,5.29,0,0,1,5.68,5C37.37,23.48,35.93,27.35,31.88,27.35Z"/><rect class="cls-1" x="12.11" y="21.34" width="5.62" height="1.21"/><polygon class="cls-1" points="32.21 19.56 30.7 19.56 30.7 21.19 29.22 21.19 29.22 22.67 30.7 22.67 30.7 24.33 32.21 24.33 32.21 22.67 33.72 22.67 33.72 21.19 32.21 21.19 32.21 19.56"/></svg>