<svg id="Capa_1" data-name="Capa 1" xmlns="http://www.w3.org/2000/svg" viewBox="0 0 46.67 44.31"><defs><style>.cls-1{fill:#fff;}.cls-2{fill:#e4a545;}</style></defs><title>opciones</title><path class="cls-1" d="M38.31,28.64a4.86,4.86,0,0,0-.83.11,3.38,3.38,0,0,1-1.33.22,3.56,3.56,0,0,1-2.1-.72H33.62a1.22,1.22,0,0,1-.44-0.06,4.19,4.19,0,0,1-1.49.22H31.57A4.3,4.3,0,0,1,29.36,28a2.8,2.8,0,0,1-.94.17l-2,.06A3.52,3.52,0,0,1,24,27.26a3.26,3.26,0,0,1-.77-0.11,4.17,4.17,0,0,1-1.33,1,4.07,4.07,0,0,1-3.31.11l-0.39-.17-1.27.17H16.5a2.4,2.4,0,0,0-.39.22,4.45,4.45,0,0,1-1.93.39H13.9a4.63,4.63,0,0,1-2.6-.77,3.23,3.23,0,0,1-.72.11,3.75,3.75,0,0,1-1.77.61H8.6a3.49,3.49,0,0,1-3.48-3.2V25.55a13.93,13.93,0,0,1,0-1.55c0-.33.06-0.83,0.06-0.94a3.8,3.8,0,0,1,.28-1.33,3.56,3.56,0,0,1,0-1.33V20.25A6.19,6.19,0,0,1,6,18.32a4,4,0,0,1,3.53-2.15,3.06,3.06,0,0,1,1.55-.39h0.17A3.48,3.48,0,0,1,14,17.27a3.5,3.5,0,0,1,1.77-.83,11.62,11.62,0,0,1,3.37-.06,3.26,3.26,0,0,1,1.82-.83l1.44-.22h0.44a3.68,3.68,0,0,1,2.32.88h0.11l2.1-.06c0.88,0,1.66-.06,1.82-0.06h0.28a3.58,3.58,0,0,1,2.21.77,3.51,3.51,0,0,1,2.1-.66h0.72a3.53,3.53,0,0,1,1.82-.55L38,15.61h0.06a3.49,3.49,0,0,1,2.65,5.74V23a3.38,3.38,0,0,1,.83,2,3.49,3.49,0,0,1-3.26,3.64h0Z"/><path class="cls-2" d="M38.2,26.66a6.11,6.11,0,0,0-1.27.17l-0.06.06a1.93,1.93,0,0,1-.66.17,1.42,1.42,0,0,1-1-.39,1.46,1.46,0,0,1-.28-0.33H33.67a1.11,1.11,0,0,1-.61-0.17c-0.06.06-.17,0.06-0.22,0.11a2.29,2.29,0,0,1-1.1.22H31.46a2.49,2.49,0,0,1-1.93-.77,1.51,1.51,0,0,1-1,.44l-2,.06A1.54,1.54,0,0,1,24.95,25a1.67,1.67,0,0,1-.88.28A1.86,1.86,0,0,1,23.12,25,0.29,0.29,0,0,0,23,24.89a1.09,1.09,0,0,1-.61.11H22.19A2.17,2.17,0,0,1,21,26.38a2.6,2.6,0,0,1-.88.22,2.5,2.5,0,0,1-.88-0.17A2,2,0,0,1,18.54,26c-0.11.06-.22,0.06-0.33,0.11l-1.6.22H16.39a1.22,1.22,0,0,1-.44-0.06,2.53,2.53,0,0,1-.72.44,2.29,2.29,0,0,1-1.1.22H13.85a2.67,2.67,0,0,1-2.21-1,2.93,2.93,0,0,1-1.49.44H9.82c0,0.06-.06.06-0.06,0.11a1.57,1.57,0,0,1-1,.5H8.6A1.51,1.51,0,0,1,7.11,25.5V25.44a10.35,10.35,0,0,1,0-1.33c0-.39.06-1,0.06-1a1.59,1.59,0,0,1,.39-1,2.26,2.26,0,0,1-.17-1.49V20.53a5.12,5.12,0,0,1,.33-1.33,2.12,2.12,0,0,1,1.93-1.1H10a1.59,1.59,0,0,1,1-.39,1.53,1.53,0,0,1,1.49,1.55v0.61a2.58,2.58,0,0,1,.94-0.17,1.22,1.22,0,0,1,.44.06,1.43,1.43,0,0,1,.88-0.5c0.06-.11.11-0.17,0.17-0.28a1.47,1.47,0,0,1,1-.61,12.22,12.22,0,0,1,1.77-.11,4.85,4.85,0,0,1,2.15.39,1.54,1.54,0,0,1,1.27-1.16l1.44-.22h0.22a1.39,1.39,0,0,1,1.1.5,1.57,1.57,0,0,1,.33.5l0.06,0.17a1.67,1.67,0,0,1,.88-0.28l2.15-.06a9.88,9.88,0,0,0,2-.11h0.11a1.64,1.64,0,0,1,1.1.44,1.52,1.52,0,0,1,.44.83h0.11a1.22,1.22,0,0,1,.44.06,1.43,1.43,0,0,1,.88-0.5,1.69,1.69,0,0,1,1.33-.72h1.44a1.47,1.47,0,0,1,1.16-.55h1.77A1.57,1.57,0,0,1,39.63,19a1.5,1.5,0,0,1-.83,1.38v3.37a1.61,1.61,0,0,1,.83,1.27,1.53,1.53,0,0,1-1.44,1.6h0Z"/><path class="cls-2" d="M22.9,20l-0.39,2,1.1-.17Z"/><path class="cls-1" d="M9.71,22c-0.39-.06-0.61-0.33-0.5-1.1V20.75c0.11-.66.17-0.83,0.5-0.83a0.48,0.48,0,0,1,.33.17,1.43,1.43,0,0,1,.44.61,3,3,0,0,1,.17.55v0.22a0.35,0.35,0,0,0,.28.28,0.35,0.35,0,0,0,.39-0.28s0.11-2.1.11-2.15a0.33,0.33,0,0,0-.66,0v0.61a1.52,1.52,0,0,0-1-.55c-1-.17-1.16.77-1.21,1.33V20.8c-0.11,1,.22,1.71,1,1.88s1.49,0.33,1.49.88a0.76,0.76,0,0,1-.33.61,1,1,0,0,1-.88.22c-0.11,0-.17-0.06-0.28-0.06A1.3,1.3,0,0,1,9,23.89a3.31,3.31,0,0,1-.11-0.66V23.12a0.33,0.33,0,1,0-.66,0,9.76,9.76,0,0,1-.06,1,7.67,7.67,0,0,0,0,1.21,0.33,0.33,0,1,0,.66,0V24.78a2.1,2.1,0,0,0,.94.39,1.59,1.59,0,0,0,1.38-.39,1.53,1.53,0,0,0,.55-1.1c0-1.38-1.38-1.6-2-1.71M19,21a0.76,0.76,0,0,1-.22.17,0.58,0.58,0,0,1-.28.11l-0.17.06a3.44,3.44,0,0,1-.88.22V20a2.74,2.74,0,0,1,1.82.33v0.11A1.25,1.25,0,0,1,19,21m1.93,3a0.38,0.38,0,0,0-.44.22,0.6,0.6,0,0,1-.28.44,0.4,0.4,0,0,1-.33-0.06,0.79,0.79,0,0,0-.11-0.17,3,3,0,0,1-.11-0.83,2.55,2.55,0,0,0-.5-1.82,2.58,2.58,0,0,0,.33-0.28,1.26,1.26,0,0,0,.28-1.38c-0.55-.94-2.93-0.66-3.7-0.55a0.34,0.34,0,1,0,.11.66c0.17,0,.33-0.06.5-0.06v1.55H16.5a0.33,0.33,0,1,0,0,.66h0.17v1.93l-0.44.06a0.34,0.34,0,0,0,.11.66l1.6-.22a0.34,0.34,0,1,0-.11-0.66l-0.5.06V22.29a4.14,4.14,0,0,0,.88-0.22h0.11a0.3,0.3,0,0,1,.28.17,2.87,2.87,0,0,1,.28,1.33,4.46,4.46,0,0,0,.17,1.1,1.06,1.06,0,0,0,.5.5,1.07,1.07,0,0,0,.83,0A1.11,1.11,0,0,0,21,24.34c0.22-.11.11-0.28-0.06-0.33m12-1a0.36,0.36,0,0,0-.33.33v0.44a0.86,0.86,0,0,1-.11.44,1,1,0,0,1-.22.28,1.21,1.21,0,0,1-.28.17,0.71,0.71,0,0,1-.39.06H31.41a0.85,0.85,0,0,1-1-.83V22.4a1.6,1.6,0,0,1,.39-1.1,1,1,0,0,1,.77.06,2.54,2.54,0,0,1,.77.66,0.43,0.43,0,0,0,.39.17A0.3,0.3,0,0,0,33,21.85V20.36a0.33,0.33,0,1,0-.66,0V21a3.08,3.08,0,0,0-.44-0.28,1.34,1.34,0,0,0-1.33-.06,2,2,0,0,0-.72,1.6v1.55a1.63,1.63,0,0,0,1.66,1.49h0.17a1.4,1.4,0,0,0,.66-0.11,1.3,1.3,0,0,0,.5-0.33,2.34,2.34,0,0,0,.28-0.39c0.11-.22.17-0.61,0.22-0.72V23.18A0.32,0.32,0,0,0,33,23m5.47,2.21a0.36,0.36,0,0,0-.33-0.33,1.37,1.37,0,0,0-.44.06c0-.55,0-1.71-0.06-5.47h0.5a0.33,0.33,0,0,0,0-.66l-1.77.06a0.33,0.33,0,0,0,0,.66h0.55V21.8l-2,.33V20h0.55a0.33,0.33,0,0,0,0-.66H33.67a0.33,0.33,0,0,0,0,.66h0.55V24.5H33.67a0.33,0.33,0,0,0,0,.66l1.82,0.06a0.33,0.33,0,0,0,0-.66H34.94V22.85l2-.33v2.54a1.68,1.68,0,0,0-.94.33,0.29,0.29,0,0,0,.06.44,0.52,0.52,0,0,0,.5,0,5.87,5.87,0,0,1,1.6-.22,0.56,0.56,0,0,0,.28-0.44"/><path class="cls-1" d="M22.52,22l0.39-2,0.72,1.82Zm2.93,0.55c-0.11.06-.28,0.11-0.61,0.28l-0.44-1-1.27-3A0.19,0.19,0,0,0,23,18.59a0.42,0.42,0,0,0-.28-0.11l-1.44.17a0.34,0.34,0,1,0,.11.66l1-.11c-0.11.61-.61,3.09-0.77,3.87l-1-.06a0.33,0.33,0,0,0,0,.66l1.66,0.06a0.33,0.33,0,1,0,0-.66l0.06-.5,1.55-.28,0.33,0.83a2.38,2.38,0,0,0-.55.39,0.33,0.33,0,0,0,.06.44,0.41,0.41,0,0,0,.5-0.06,3.86,3.86,0,0,1,1.38-.72,0.38,0.38,0,0,0,.22-0.44,0.34,0.34,0,0,0-.39-0.17"/><path class="cls-1" d="M29.42,19.2l-2.1.11-2.15.06a0.58,0.58,0,0,0-.28.11,0.24,0.24,0,0,0-.06.28l0.28,1.66a0.32,0.32,0,0,0,.39.28,0.31,0.31,0,0,0,.28-0.33s-0.11-.88-0.22-1.33H27v4.36H26.27a0.33,0.33,0,0,0,0,.66l2-.06a0.33,0.33,0,0,0,0-.66H27.65V20c0.55,0,1-.06,1.38-0.06v0.66a2.28,2.28,0,0,0,.06.5,0.3,0.3,0,0,0,.44.11,0.39,0.39,0,0,0,.17-0.33s0-.77.06-1.21a0.3,0.3,0,0,0-.11-0.28,0.19,0.19,0,0,0-.22-0.17M15.34,23.29a0.36,0.36,0,0,0-.33.33v0.5a1.3,1.3,0,0,1-.11.44,1,1,0,0,1-.22.28,1.21,1.21,0,0,1-.28.17,0.71,0.71,0,0,1-.39.06H13.79a0.87,0.87,0,0,1-1-.83V22.79a1.6,1.6,0,0,1,.39-1.1,1,1,0,0,1,.77.06,2,2,0,0,1,.77.66,0.43,0.43,0,0,0,.39.17,0.3,0.3,0,0,0,.22-0.33V20.75a0.33,0.33,0,1,0-.66,0v0.61a1.2,1.2,0,0,0-.44-0.28A1.63,1.63,0,0,0,12.85,21a2,2,0,0,0-.72,1.6v1.55a1.64,1.64,0,0,0,1.71,1.49H14a1.4,1.4,0,0,0,.66-0.11,1.3,1.3,0,0,0,.5-0.33,2.34,2.34,0,0,0,.28-0.39c0.11-.22.17-0.61,0.22-0.72V23.56a0.36,0.36,0,0,0-.33-0.28"/></svg>