<svg id="Capa_1" data-name="Capa 1" xmlns="http://www.w3.org/2000/svg" xmlns:xlink="http://www.w3.org/1999/xlink" viewBox="0 0 46.67 44.31"><defs><style>.cls-1{fill:#492685;}.cls-2{fill:#6036a9;}.cls-3{fill:#774dc1;}.cls-4{fill:#a178ec;}.cls-5{fill-opacity:0.25;fill:url(#Degradado_sin_nombre_2);}</style><linearGradient id="Degradado_sin_nombre_2" x1="138.04" y1="45.32" x2="138.04" y2="45.28" gradientTransform="matrix(800, 0, 0, -795.86, -110407.81, 36071.09)" gradientUnits="userSpaceOnUse"><stop offset="0" stop-color="#fff"/><stop offset="1" stop-color="#fff" stop-opacity="0"/></linearGradient></defs><title>opciones</title><path class="cls-1" d="M12.36,31a1.29,1.29,0,0,1-1.33.21l-2.34-1A1.29,1.29,0,0,1,7.9,29V15.29a1.29,1.29,0,0,1,.79-1.18l2.34-1a1.29,1.29,0,0,1,1.33.21l0.52,0.43a0.71,0.71,0,0,0-1.13.58V29.94a0.71,0.71,0,0,0,1.13.58Z"/><path class="cls-2" d="M8.69,30.2A1.29,1.29,0,0,1,7.9,29V28.91a0.74,0.74,0,0,0,1.29.5l19.94-22A1.93,1.93,0,0,1,31.32,7L37.68,10a1.93,1.93,0,0,1,1.09,1.74v0.07a1.22,1.22,0,0,0-2-.94l-23.9,19.6L12.36,31a1.29,1.29,0,0,1-1.33.21Z"/><path class="cls-3" d="M8.69,14.11a1.29,1.29,0,0,0-.79,1.18V15.4a0.74,0.74,0,0,1,1.29-.5L29.13,37a1.93,1.93,0,0,0,2.19.37l6.36-3.06a1.93,1.93,0,0,0,1.09-1.74V32.45a1.22,1.22,0,0,1-2,.94l-23.9-19.6-0.52-.45A1.29,1.29,0,0,0,11,13.15Z"/><path class="cls-4" d="M31.32,37.32A1.93,1.93,0,0,1,29.13,37a1.13,1.13,0,0,0,1.93-.8v-28a1.13,1.13,0,0,0-1.93-.81A1.93,1.93,0,0,1,31.32,7L37.68,10a1.93,1.93,0,0,1,1.09,1.74V32.53a1.93,1.93,0,0,1-1.09,1.74Z"/><path class="cls-5" d="M30.06,37.47a1.93,1.93,0,0,0,1.26-.14l6.36-3.06a1.93,1.93,0,0,0,1.09-1.74V11.79A1.93,1.93,0,0,0,37.68,10L31.32,7a1.92,1.92,0,0,0-2.19.37L18.87,18.7l-6-4.91-0.52-.45a1.29,1.29,0,0,0-1.16-.27L11,13.13l-2.34,1A1.29,1.29,0,0,0,7.9,15.2V29.11a1.29,1.29,0,0,0,.79,1.08l2.34,1,0.17,0.06A1.29,1.29,0,0,0,12.36,31l0.52-.43,6-4.91L29.13,37a1.93,1.93,0,0,0,.93.51h0Zm1-21.85-8,6.54,8,6.54V15.62Zm-19.3,2.12,4,4.42-4,4.42V17.74Z"/></svg>